<?xml version="1.0" encoding="UTF-8"?>
<svg id="Layer_1" xmlns="http://www.w3.org/2000/svg" version="1.1" viewBox="0 0 841.89 195.77">
  <!-- Generator: Adobe Illustrator 29.6.1, SVG Export Plug-In . SVG Version: 2.1.1 Build 9)  -->
  <defs>
    <style>
      .st0 {
        font-family: HandsomePro-Bold, 'Handsome Pro';
        font-size: 85.79px;
        font-weight: 700;
      }

      .st0, .st1, .st2 {
        fill: #5dbfc1;
      }

      .st1 {
        font-family: PatrickHandSC-Regular, 'Patrick Hand SC';
        font-size: 34.47px;
      }
    </style>
  </defs>
  <g>
    <text class="st0" transform="translate(114.75 94.35)"><tspan x="0" y="0">Emily-Rose Cripps</tspan></text>
    <path class="st2" d="M116.55,77.7c-10.58,8.26-21.84,15.58-33.75,21.77-8.08,4.2-24.24,12.38-29.62,0-2.51-5.77,3.22-9.85,8.34-10.72,5.14-.87,10.46,1,14.59,4.01,10.34,7.52,11.88,21.61,10.65,33.4-1.23,11.86-5.56,24.93-16.32,31.4-2.61,1.57-.68,5.95,1.96,4.37,11.81-7.1,17.2-20.27,18.92-33.46,1.82-14.04-.13-30.66-12.42-39.61-8.58-6.24-26.44-8.36-30.63,4.48-1.65,5.04.95,10.38,4.81,13.63,4.98,4.21,11.63,4.49,17.71,2.85,8.56-2.31,16.63-7.18,24.21-11.65,8.57-5.05,16.79-10.67,24.63-16.79,2.43-1.89-.62-5.59-3.05-3.69h0Z"/>
    <path class="st2" d="M729.68,88.14c3.89-11.36,13.12-19.79,17.91-30.71,2.28-5.2,3.77-10.66,4.43-16.3.52-4.46,1.19-10.29-1.48-14.26-2.1-3.12-6.04-3.99-9.27-2.12-3.9,2.25-5.07,6.86-3.72,10.98,3.13,9.6,14.65,14.55,23.98,14.86,11.45.38,26.02-5.76,32.25-15.71,1.64-2.62-2.5-5.02-4.13-2.42-5.55,8.85-19.23,14.04-29.31,13.28-5.03-.38-10.11-2.25-13.94-5.59-2.05-1.79-4.29-4.28-4.55-7.11-.3-3.28,3.56-6.65,5.21-2.42s.33,10.87-.66,15.24c-1.25,5.53-3.37,10.76-6.3,15.61-5.11,8.49-11.78,15.87-15.03,25.38-1,2.92,3.62,4.18,4.62,1.27h0Z"/>
  </g>
  <text class="st1" transform="translate(184.88 159.21)"><tspan x="0" y="0">Graphic Designer, Illustrator &amp; Maker</tspan></text>
</svg>